<?xml version="1.0" encoding="utf-8"?>
<!-- Generator: Adobe Illustrator 24.3.0, SVG Export Plug-In . SVG Version: 6.00 Build 0)  -->
<svg version="1.1" id="_x3C_Camada_x3E_" xmlns="http://www.w3.org/2000/svg" xmlns:xlink="http://www.w3.org/1999/xlink" x="0px"
	 y="0px" viewBox="0 0 595.28 595.28" style="enable-background:new 0 0 595.28 595.28;" xml:space="preserve">
<style type="text/css">
	.st0{fill-rule:evenodd;clip-rule:evenodd;fill:#96524A;}
	.st1{fill-rule:evenodd;clip-rule:evenodd;fill:#E0C2AB;}
	.st2{fill-rule:evenodd;clip-rule:evenodd;fill:#FFC787;}
	.st3{fill-rule:evenodd;clip-rule:evenodd;fill:#CF8C6B;}
	.st4{fill-rule:evenodd;clip-rule:evenodd;fill:#FCBA82;}
	.st5{fill-rule:evenodd;clip-rule:evenodd;fill:#B2785C;}
	.st6{fill-rule:evenodd;clip-rule:evenodd;fill:#FFD9AD;}
	.st7{fill-rule:evenodd;clip-rule:evenodd;fill:#D98F57;}
	.st8{fill-rule:evenodd;clip-rule:evenodd;fill:#FFFFFF;}
	.st9{fill-rule:evenodd;clip-rule:evenodd;fill:#D74815;}
	.st10{fill-rule:evenodd;clip-rule:evenodd;fill:#E75324;}
	.st11{fill-rule:evenodd;clip-rule:evenodd;fill:#DADADA;}
	.st12{fill-rule:evenodd;clip-rule:evenodd;fill:#EDEDED;}
	.st13{fill-rule:evenodd;clip-rule:evenodd;fill:#FFD1B5;}
	.st14{fill-rule:evenodd;clip-rule:evenodd;fill:#BA756E;}
	.st15{fill-rule:evenodd;clip-rule:evenodd;fill:#AFCA0B;}
	.st16{fill-rule:evenodd;clip-rule:evenodd;fill:#814997;}
	.st17{fill-rule:evenodd;clip-rule:evenodd;fill:#EDEDED;stroke:#3D3D42;stroke-width:0.5001;stroke-miterlimit:22.9256;}
	.st18{fill-rule:evenodd;clip-rule:evenodd;fill:#87ABBA;stroke:#3D3D42;stroke-width:0.5001;stroke-miterlimit:22.9256;}
	.st19{fill-rule:evenodd;clip-rule:evenodd;fill:#FFD1B5;stroke:#C99987;stroke-width:0.5001;stroke-miterlimit:22.9256;}
	.st20{fill-rule:evenodd;clip-rule:evenodd;fill:#757A80;stroke:#3D3D42;stroke-width:0.5001;stroke-miterlimit:22.9256;}
	.st21{fill-rule:evenodd;clip-rule:evenodd;fill:#C6C6C6;stroke:#3D3D42;stroke-width:0.4999;stroke-miterlimit:22.9256;}
	.st22{fill-rule:evenodd;clip-rule:evenodd;fill:#748FC9;stroke:#53668D;stroke-width:0.5001;stroke-miterlimit:22.9256;}
	.st23{fill-rule:evenodd;clip-rule:evenodd;fill:#B2382E;}
	.st24{fill-rule:evenodd;clip-rule:evenodd;fill:#BA756E;stroke:#96524A;stroke-width:0.444;stroke-miterlimit:22.9256;}
	.st25{fill-rule:evenodd;clip-rule:evenodd;fill:#FFD1B5;stroke:#C99987;stroke-width:0.444;stroke-miterlimit:22.9256;}
	.st26{fill:none;stroke:#C99987;stroke-width:0.444;stroke-miterlimit:22.9256;}
	.st27{fill-rule:evenodd;clip-rule:evenodd;fill:#5A556E;}
	.st28{fill-rule:evenodd;clip-rule:evenodd;fill:#C99987;}
	.st29{fill:none;stroke:#96524A;stroke-width:0.444;stroke-miterlimit:22.9256;}
	.st30{fill-rule:evenodd;clip-rule:evenodd;fill:#53668D;}
	.st31{fill:none;stroke:#3D3D42;stroke-width:0.4999;stroke-miterlimit:22.9256;}
</style>
<g>
	<polygon class="st0" points="-0.15,295.25 595.28,295.25 595.28,595.28 -0.15,595.28 -0.15,295.25 	"/>
	<path class="st1" d="M338.18,1.31c85.7,1.56,171.4,0.41,257.1-1.31v329.39l-282.02-32.9L338.18,1.31L338.18,1.31z"/>
	<path class="st2" d="M297.67,368.16c164.36,0,297.6,30.11,297.6,67.25c0,37.14-133.24,67.25-297.6,67.25
		c-164.36,0-297.6-30.11-297.6-67.25C0.07,398.27,133.31,368.16,297.67,368.16L297.67,368.16z"/>
	<path class="st3" d="M297.67,382.9c140.96,0,255.23,23.51,255.23,52.51c0,29-114.27,52.51-255.23,52.51S42.44,464.4,42.44,435.4
		C42.44,406.41,156.71,382.9,297.67,382.9L297.67,382.9z"/>
	<path class="st4" d="M297.67,391.49c117.88,0,213.44,19.66,213.44,43.91c0,24.25-95.56,43.91-213.44,43.91
		S84.23,459.65,84.23,435.4C84.23,411.15,179.79,391.49,297.67,391.49L297.67,391.49z"/>
	<polygon class="st3" points="591.83,296.19 -0.15,295.12 -0.15,277.62 591.83,278.44 591.83,296.19 	"/>
	<polygon class="st5" points="367.78,303.15 387.9,48.33 551.94,40.08 516.86,321.72 367.78,303.15 	"/>
	<polygon class="st6" points="503.64,320.08 391.17,306.07 408.02,75.15 531.6,73.12 503.64,320.08 	"/>
	<polygon class="st3" points="367.78,303.15 387.9,48.33 551.94,40.08 516.86,321.72 504.31,320.16 532.85,61.74 397.7,63.29 
		383.13,305.06 367.78,303.15 	"/>
	<polygon class="st7" points="415.24,155.62 508.61,162.84 521.5,81.34 417.82,85.98 415.24,155.62 	"/>
	<path class="st7" d="M499.84,209.27l-91.3-7.74l-9.29,95.43c0,0,92.85,9.28,90.27,8.77C486.94,305.22,499.84,209.27,499.84,209.27
		L499.84,209.27z"/>
	<path class="st2" d="M493.39,176.69c4.75,0,8.59,3.85,8.59,8.59c0,4.75-3.85,8.59-8.59,8.59c-4.75,0-8.59-3.85-8.59-8.59
		C484.8,180.54,488.64,176.69,493.39,176.69L493.39,176.69z"/>
	<path class="st7" d="M493.39,179.91c2.97,0,5.37,2.4,5.37,5.37s-2.4,5.37-5.37,5.37c-2.97,0-5.37-2.4-5.37-5.37
		S490.42,179.91,493.39,179.91L493.39,179.91z"/>
	<path class="st8" d="M496.44,179.2c1.95,0,3.54,1.58,3.54,3.54c0,1.95-1.59,3.54-3.54,3.54c-1.95,0-3.54-1.58-3.54-3.54
		C492.9,180.78,494.48,179.2,496.44,179.2L496.44,179.2z"/>
	<polygon class="st2" points="417.62,157.37 510.99,164.59 523.88,83.09 420.2,87.73 417.62,157.37 	"/>
	<path class="st2" d="M500.81,210.63l-91.3-7.74l-9.29,95.43c0,0,92.85,9.28,90.27,8.77C487.91,306.57,500.81,210.63,500.81,210.63
		L500.81,210.63z"/>
	<path class="st7" d="M60.25,125.81c-1.28,1.28-3.05,2.07-5,2.07c-3.91,0-7.09-3.17-7.09-7.09c0-2.77,1.59-5.17,3.91-6.34v-88.8
		c-2.32-1.16-3.91-3.56-3.91-6.34c0-3.91,3.17-7.09,7.09-7.09c2.96,0,5.5,1.82,6.56,4.4l124.92,22.36c1.03-0.94,2.39-1.51,3.89-1.51
		c3.19,0,5.78,2.59,5.78,5.78c0,1.87-0.89,3.53-2.26,4.58v81.52c1.38,1.06,2.26,2.72,2.26,4.58c0,3.19-2.59,5.78-5.78,5.78
		c-2.05,0-3.86-1.07-4.88-2.69L60.25,125.81L60.25,125.81z"/>
	<path class="st2" d="M62.65,124.14c-1.28,1.28-3.05,2.07-5,2.07c-3.91,0-7.09-3.17-7.09-7.09c0-2.77,1.59-5.17,3.91-6.34v-88.8
		c-2.32-1.16-3.91-3.56-3.91-6.34c0-3.91,3.17-7.09,7.09-7.09c2.96,0,5.5,1.82,6.56,4.4l124.92,22.36c1.03-0.94,2.39-1.51,3.89-1.51
		c3.19,0,5.78,2.59,5.78,5.78c0,1.87-0.89,3.53-2.26,4.58v81.52c1.38,1.06,2.26,2.72,2.26,4.58c0,3.19-2.59,5.78-5.78,5.78
		c-2.05,0-3.86-1.07-4.88-2.69L62.65,124.14L62.65,124.14z"/>
	<polygon class="st7" points="60.6,19.64 190.42,42.87 190.42,130.06 60.6,118.45 60.6,19.64 	"/>
	<polygon class="st8" points="64.11,23.84 64.11,115.23 186.9,126.22 186.9,45.81 64.11,23.84 	"/>
	<path class="st2" d="M75.74,319.19c3.56,0-40.6-163.88-41.34-169.47c-0.74-5.59,103.54-14.53,138.55,6.7
		c35.01,21.23,8.27,85.05,8.27,85.05s15.19-9.99,30.59-7.75c18.36,2.67,17.62,83.19,6.94,84.35l-102.8,11.17L75.74,319.19
		L75.74,319.19z"/>
	<path class="st6" d="M196.02,320.55l-23.31,2.53l-0.06-0.11c-1.62-1.91-7.68-55.5-3.32-65.2c4.36-9.7,13.86-17.11,27.64-18.43
		c13.78-1.32,1.94,5.33,0,18.43c-1.94,13.09-2.67,52.86-0.97,60.62C196.17,319.15,196.16,319.86,196.02,320.55L196.02,320.55z"/>
	<path class="st3" d="M210.75,238.03c6.68-1.04,12.1,30.04,12.1,49.85c0,19.81-2.72,21.57-4.1,30.19l-18.34,1.99
		c-1.38-8.19-1.77-8.59-1.77-28.4C198.65,271.86,204.07,239.08,210.75,238.03L210.75,238.03z"/>
	<path class="st6" d="M210.75,250.23c4.66-0.89,8.45,25.58,8.45,42.44c0,16.86-1.9,18.36-2.86,25.7l-12.8,1.7
		c-0.96-6.97-1.23-7.31-1.23-24.18C202.31,279.03,206.09,251.12,210.75,250.23L210.75,250.23z"/>
	<path class="st3" d="M131.98,242.13c11.11-1.1,20.11,22.42,20.11,52.54c0,11.64-1.35,22.55-3.64,31.63l-32.95,3.26
		c-2.29-8.63-3.64-19.28-3.64-30.91C111.87,268.54,120.87,243.23,131.98,242.13L131.98,242.13z"/>
	<path class="st4" d="M156.74,270.44c0,0,24.28-8.96,33.17,3.1c8.88,12.07,2.26,45.63,2.35,46.51c0.1,0.89-39.36,5.17-39.36,5.17
		s7.11-21.7,5.57-40.52C156.94,265.89,156.74,270.44,156.74,270.44L156.74,270.44z"/>
	<path class="st6" d="M132.55,251.01c7.22-0.98,13.08,19.93,13.08,46.7c0,10.34-0.87,20.05-2.36,28.12l-21.43,2.9
		c-1.49-7.67-2.36-17.14-2.36-27.48C119.47,274.48,125.33,251.98,132.55,251.01L132.55,251.01z"/>
	<path class="st6" d="M49.86,149.73c0,0,104.38,0.64,118.62,17.99c14.24,17.35,9.58,63.45,3.63,77.43
		c-5.96,13.98-5.82,22.83-5.82,22.83l-9.55,2.46c-10.88-37.98-17.63-40.97-49.77-36.08c-8.95,1.36-14.83,2.32-14.83,2.32
		s12.29-15.72,12.85-31.72c0.56-16.01-3.36-34.49-14.41-41.7c-11.05-7.21-19.06-10.64-24.19-11.59
		C61.26,150.72,49.86,149.73,49.86,149.73L49.86,149.73z"/>
	<path class="st9" d="M466.85,412.49c0,0-18.01,4.29-25.62,11.77c-7.62,7.48-5.68,8.73-5.68,8.73s-0.97,9.83-10.67,9
		c-9.7-0.83-6.51-0.69-6.51-0.69s-7.62,0-17.87,13.57c-10.25,13.57-11.63,20.91-11.63,20.91l-97.49-17.18l-0.18-1.49
		c0,0,12.85-15.62,34.56-28.58c21.71-12.96,38.52-11.03,38.52-11.03s1.07-2.62,11.03-12.12c9.96-9.49,25.6-6.21,25.6-6.21
		L466.85,412.49L466.85,412.49z"/>
	<path class="st10" d="M466.3,411.36c0,0-18.01,4.29-25.62,11.77c-7.62,7.48-5.68,8.73-5.68,8.73s-0.97,9.84-10.67,9
		c-9.7-0.83-6.51-0.69-6.51-0.69s-7.62,0-17.87,13.57c-10.25,13.57-11.63,20.91-11.63,20.91l-97.49-17.18l-0.18-1.49
		c0,0,12.85-15.62,34.56-28.58c21.71-12.96,38.52-11.03,38.52-11.03s1.07-2.63,11.03-12.12c9.96-9.49,25.6-6.21,25.6-6.21
		L466.3,411.36L466.3,411.36z"/>
	<path class="st11" d="M467.02,409.31c0,0-14.19-3.25-27.52,8.21c-13.33,11.45-11.62,17.95-11.62,17.95s-15.21-3.93-28.03,6.84
		c-12.82,10.77-14.87,28.38-14.87,28.38l-87.18-14.87c0,0,1.2-13.16,17.78-27.35s47.23-11.98,47.23-11.98s2.14-10.61,10.57-17.01
		c8.43-6.41,21.92-5.51,21.92-5.51S466.98,409.3,467.02,409.31L467.02,409.31z"/>
	<path class="st12" d="M466.55,407.38c0,0-14.19-3.25-27.52,8.21c-13.33,11.45-11.62,17.95-11.62,17.95s-15.21-3.93-28.03,6.84
		c-12.82,10.77-14.87,28.38-14.87,28.38l-87.18-14.87c0,0,1.2-13.16,17.78-27.35c16.58-14.19,47.23-11.98,47.23-11.98
		s2.14-10.61,10.57-17.01c8.43-6.41,21.92-5.51,21.92-5.51S466.51,407.37,466.55,407.38L466.55,407.38z"/>
	<path class="st8" d="M466.04,405.56c0,0-14.19-3.25-27.52,8.21c-13.33,11.45-11.62,17.95-11.62,17.95s-15.21-3.93-28.03,6.84
		c-12.82,10.77-14.87,28.38-14.87,28.38l-87.18-14.87c0,0,1.2-13.16,17.78-27.35s47.23-11.98,47.23-11.98s2.14-10.61,10.57-17.01
		c8.43-6.41,21.92-5.51,21.92-5.51S466,405.55,466.04,405.56L466.04,405.56z"/>
	<path class="st13" d="M477.47,415.71l-27.79,18.32c0,0-4.36,10.14-6.24,11.61c-1.88,1.48-3.02,2.95-3.02,2.95s2.15,0.54,3.09-0.07
		s8.32-4.3,12.15-4.56c3.83-0.27,4.16-0.4,4.16-0.4l23.36-20.88l-1.14-4.7L477.47,415.71L477.47,415.71z"/>
	<path class="st0" d="M445.89,441.98c-0.92,1.72-1.83,3.17-2.45,3.67c-1.88,1.48-3.02,2.95-3.02,2.95s2.15,0.54,3.09-0.07
		c0.64-0.41,4.22-2.23,7.65-3.45C449.69,443.9,447.6,442.78,445.89,441.98L445.89,441.98z"/>
	<path class="st0" d="M477.47,415.71l-27.79,18.32l-0.18,0.4l3.93,0.94l-3.49,4.97l5.44-1.54l-4.23,3.69l7.11-1.07l-5.49,3.14
		c1.06-0.31,2.05-0.53,2.87-0.59c3.83-0.27,4.16-0.4,4.16-0.4l23.36-20.88l-1.14-4.7L477.47,415.71L477.47,415.71z"/>
	<path class="st14" d="M455.39,438.8l-4.23,3.69l7.11-1.07l-5.49,3.14c1.06-0.31,2.05-0.53,2.87-0.59c3.83-0.27,4.16-0.4,4.16-0.4
		l23.36-20.88l-1.05-4.32L455.39,438.8L455.39,438.8z"/>
	<path class="st15" d="M130.76,478.53L91.31,467.1c0,0-5.72-4.14-0.29-8.86c5.43-4.72,65.03-17.15,65.03-17.15l35.59,7l-5.29,2.14
		l9.01,10.29L130.76,478.53L130.76,478.53z"/>
	<path class="st8" d="M195.93,446.8l-68.89,16.87c0,0-25.73-6.86-30.73-5c-5,1.86-4,4.72-3,5.72c1,1,36.45,9.72,36.45,9.72
		l64.05-15.36l3.99-2.51c0,0-4.35-1.13-5.15-0.43c-0.8,0.7,2.72-2.57,2.72-2.57l-6.29-1.14L195.93,446.8L195.93,446.8z"/>
	<path class="st16" d="M544.08,454.13l39.45-11.43c0,0,5.72-4.14,0.29-8.86c-5.43-4.72-65.03-17.15-65.03-17.15l-35.59,7l5.29,2.14
		l-9.01,10.29L544.08,454.13L544.08,454.13z"/>
	<path class="st8" d="M478.9,422.4l68.89,16.87c0,0,25.73-6.86,30.73-5c5,1.86,4,4.72,3,5.72c-1,1-36.45,9.72-36.45,9.72
		l-64.05-15.36l-3.99-2.51c0,0,4.35-1.13,5.15-0.43c0.8,0.7-2.72-2.57-2.72-2.57l6.29-1.14L478.9,422.4L478.9,422.4z"/>
</g>
<g>
	<path class="st17" d="M143.64,416.73c-0.18-1.59-4.19-0.14-4.62-0.93c-0.44-0.78-18.92,2.68-26.57-0.4
		c-7.65-3.09-9.39-7.38-9.39-7.38s25.63-2.42,34.08-0.27c8.45,2.15,8.99,3.76,8.99,3.76l0.51,4.78
		C144.66,417.9,145.97,416.34,143.64,416.73L143.64,416.73z"/>
	<path class="st18" d="M142.91,417.2c-0.18-1.59-3.46-0.61-3.89-1.4c-0.44-0.78-18.92,2.68-26.57-0.4
		c-4.17-1.68-6.58-3.72-7.92-5.23c6.58-0.24,21.36-0.9,27.3-0.4c5.81,0.49,11.66,1.83,14.38,2.57l0.42,3.95
		C144.66,417.9,145.24,416.81,142.91,417.2L142.91,417.2z"/>
	<path class="st19" d="M206.22,349.52c0,0-0.65-11.11-1.32-12.32c-0.67-1.21-18.92,2.68-26.57-0.4c-7.65-3.09-9.39-7.38-9.39-7.38
		s25.63-2.42,34.08-0.27c8.45,2.15,8.99,3.76,8.99,3.76l1.88,17.57L206.22,349.52L206.22,349.52z"/>
	<path class="st17" d="M205.49,340.42c-0.18-1.59-0.38-2.85-0.58-3.22c-0.67-1.21-18.92,2.68-26.57-0.4
		c-7.65-3.09-9.39-7.38-9.39-7.38s25.63-2.42,34.08-0.27c8.45,2.15,8.99,3.76,8.99,3.76l0.51,4.78
		C210.55,339.3,207.82,340.04,205.49,340.42L205.49,340.42z"/>
	<path class="st18" d="M205.49,340.42c-0.18-1.59-0.38-2.85-0.58-3.22c-0.67-1.21-18.92,2.68-26.57-0.4
		c-4.17-1.68-6.58-3.72-7.92-5.23c6.58-0.24,21.36-0.9,27.3-0.4c5.81,0.49,11.66,1.83,14.38,2.57l0.42,3.95
		C210.55,339.3,207.82,340.04,205.49,340.42L205.49,340.42z"/>
	<path class="st20" d="M234.95,415.12c0,0-31.8,3.95-58.04,4.52c-26.24,0.57-38.69-3.02-38.67-3.84l0.17-7.71
		c0,0,32.08-3.11,48.88-5.62c16.81-2.51,16.73-2.21,16.73-2.21c-0.87,1.05-4.35-28.22-0.91-52.25c0,0-4.03,1.03,5-0.47
		c9.03-1.51,9.06-0.47,9.06-0.47c-3.93,11.86-7.44,24.59-2.28,33.84c2.1,3.77,6.82-0.37,9.83,0.46c0,0,5.47,30.39,7.98,34.66
		C235.21,420.27,234.95,415.12,234.95,415.12L234.95,415.12z"/>
	<path class="st21" d="M226,416.14l-0.04,0l-0.01,0c-7.37,0.74-27.92-8.39-27.92-8.39l27.99-1.76
		C226.01,405.99,233.28,415.35,226,416.14L226,416.14z"/>
	<path class="st19" d="M353.52,380.85c0,0,25.48,20.67,28.09,22.07c2.61,1.4,6.62-3.41,7.02-7.82c0.4-4.41,2.21-65.61,2.21-65.61
		s4.35-5.33,9.08-12.52c4.74-7.18,3.27-16.49,3.27-16.49s-10.94,5.23-13.72,7.84c-2.78,2.61-6.69,1.47-8.82,1.47
		c-2.12,0-7.18,7.35-6.2,12.74c0.98,5.39,3.43,8.33,3.43,8.33l-2.12,55.19l-14.17-14.53l-11.3,4.73L353.52,380.85L353.52,380.85z"/>
	<path class="st22" d="M337.39,330.61l30.74,34.51l-22.45,21.91c0,0-16.11-27.34-15.39-38.74
		C331.02,336.88,337.39,330.61,337.39,330.61L337.39,330.61z"/>
	<path class="st23" d="M381.98,326.14c0,0-1.92-4.34,1.43-8.07c3.35-3.72,6.27-4.41,6.27-4.41s-5.15,3.97-5.65,7.45
		C383.53,324.59,381.98,326.14,381.98,326.14L381.98,326.14z"/>
	<path class="st22" d="M312.06,336.21c-8.28,9.67-25.13,26.08-46.34,29.2c-30.45,4.48-38.71,3.07-38.71,3.07
		s-11.95,16.32-2.36,44.14c5.38,15.61,10.86,18.08,10.86,18.08s54.76-0.62,77.89-29.18c17.32-21.39,25.78-39.33,26.55-52.85
		C341.42,322.87,328.11,317.46,312.06,336.21L312.06,336.21z"/>
	<path class="st19" d="M309.27,392.12l-1.99,43.81l39.5-21.04c0,0-1.48-6.83,2.95-9.23c4.43-2.4,5.72,1.48,5.72,1.48
		s12.74-0.92,13.29,2.77c0.55,3.69-3.14,5.91-3.14,5.91s1.48,4.61-0.18,5.72c-1.66,1.11-1.84,2.4-2.21,4.06
		c-0.37,1.66-2.03,2.58-6.09,2.03c-4.06-0.55-7.75-2.03-8.49-2.22c-0.74-0.18-36.92,21.6-45.78,23.44
		c-8.86,1.85-2.94-55.84-2.94-55.84l-0.92,0.09L309.27,392.12L309.27,392.12z"/>
	<path class="st22" d="M314.34,333.69c-5.04-0.53-12.67,4.56-18.61,20.52c-5.93,15.96-5.23,39.7-5.23,39.7l30.93-2.95
		C320.42,382.13,318.92,334.16,314.34,333.69L314.34,333.69z"/>
	<path class="st24" d="M398.31,259.53c0.26-0.02,13.92,1.45,13.6,1.54c-0.32,0.09-3.48-3.3-3.48-3.3l-7.5-6.69
		c0,0,1.38-14.94,1.21-26.7c-0.17-11.76-6.69-16.82-6.69-16.82l-3.15,0.01c0,0,2.34,16.3,2.65,21.77c0.3,5.47,0.1,22.49,1.22,25.73
		C397.29,258.31,398.31,259.53,398.31,259.53L398.31,259.53z"/>
	<path class="st25" d="M334.9,336.96c0.7-3.35,2.76-7.32,7.55-9.91c17.74-9.56,67.63-4.94,60.42-41.24
		c-3.99-20.1-3.99-23.5-3.99-23.5s-2.26-22.1-1.68-30.77c0.59-8.67-1.76-19.8-6.79-27.18c-5.04-7.38-30.69-31.53-79.76-24.21
		c-49.07,7.32-37.79,71.23-37.79,71.23l1.58,14.05c0,0-6.25-2.83-9.76,6.69c-3.51,9.53,2.13,17.3,8.65,21.81
		c6.52,4.51,13.79,4.39,13.79,4.39c7.6,10.24,19.51,18.39,31.35,25.75c-0.15,2.58-0.51,8.88,0.66,12.99
		c0.49,1.74,1.16,3.42,2.01,4.86c3.43,5.84,13.07,8.31,13.44-1.85C334.62,339.08,334.68,338.03,334.9,336.96L334.9,336.96z"/>
	<path class="st26" d="M287.12,298.33c0,0-2.5-3.65-2.14-11.18c0.37-7.53-9.3-18.01-14.61-13.58c-5.31,4.43-4.43,11.22-2.14,14.69
		c2.29,3.47,3.84,4.76,3.84,4.76"/>
	<path class="st25" d="M402.78,285.33c0,0,7.94-5.51,6.91-17.74c-0.76-9.01-9.77-18.91-11.47-12.49c0,0,1.09,15.7,2.95,21.83
		c1.85,6.13,1.14,5.99,1.14,5.99L402.78,285.33L402.78,285.33z"/>
	<path class="st25" d="M402.78,285.33c0,0,5.9-4.1,6.87-13.06c-0.32-2.4,0.36-8.28-4.52-12.04c-4.87-3.76-6.43,0.54-6.43,0.54
		C399.36,270.1,401.19,277.27,402.78,285.33L402.78,285.33z"/>
	<path class="st24" d="M274.44,265.44c0,0,5.09,1.13,9.82,6.85c4.73,5.71,11.01,12.69,11.01,12.69s1.55-5.62-2.11-12.18
		c-3.65-6.56-7.4-7.12-7.4-7.12s5.51-6.41,10.81-17.94c5.3-11.52,0.4-17.88,0.4-17.88l13.38,14.04c0,0-0.13-5.03-5.03-11.39
		c-4.9-6.36-6.49-7.42-6.49-7.42l13.11,10.73c0,0,0.66-4.64-3.18-12.05c-3.84-7.42-4.64-8.08-4.64-8.08s9.64,7.61,29.33,10.43
		c19.69,2.81,41.17,1.53,41.17,1.53s-9.21-5.63-14.57-7.67c-5.37-2.05-11.76-5.63-11.76-5.63s16.36,4.35,24.04,7.93
		c7.67,3.58,13.3,9.72,13.3,9.72l3.32,6.14c0,0-1.02-14.06-3.58-20.2c-2.56-6.14-2.81-6.14-2.81-6.14s7.67,10.74,8.18,14.32
		c0.51,3.58,1.28,7.42,1.28,7.42s2.56-6.39,1.79-12.27c-0.77-5.88-1.99-9.37-1.99-9.37s0.85-1.37,6.53-0.2
		c5.68,1.17,9.6,3.13,9.6,3.13s-5.74-5.81-9.66-9.92c-3.92-4.11-15.91-21.03-43.27-28.63c-27.35-7.6-45.33-1.77-61.04,4.05
		c-15.7,5.82-21.53,20.77-21.53,20.77s-3.8-2.28-3.04-7.85c0.76-5.57,4.31-9.12,4.31-9.12s-9.62,6.33-8.86,12.41
		c0.76,6.08,4.31,6.33,4.31,6.33s-1.52-0.51-9.12,3.29c-7.6,3.8-7.34,9.88-7.34,9.88s4.56-6.08,9.12-5.82
		c4.56,0.25,2.53,1.77,2.53,1.77s-8.1,15.2-3.29,32.92c4.81,17.73,4.34,20.39,4.34,20.39l-5.26,5.12l5.16,0.27
		c0,0,1.45-3.37,3.22-4.33c1.77-0.97,2.32-1.45,3.69-1.32C273.55,265.17,274.44,265.44,274.44,265.44L274.44,265.44z"/>
	<path class="st27" d="M384.44,274.3c-2.01-2.02-4.42-2.14-5.36-0.28c-0.95,1.86-0.08,5.01,1.93,7.02c2.01,2.02,4.41,2.14,5.36,0.28
		C387.32,279.46,386.46,276.32,384.44,274.3L384.44,274.3z"/>
	<path class="st27" d="M338.05,276.15c-2.01-2.02-4.41-2.14-5.36-0.28c-0.95,1.86-0.08,5.01,1.93,7.02
		c2.01,2.02,4.42,2.14,5.36,0.28C340.93,281.31,340.06,278.17,338.05,276.15L338.05,276.15z"/>
	<path class="st26" d="M367.19,270.55l3.54,14.98c0,0,10.1-0.37,10.72-0.38c0.62-0.01,4.36,7.35-3.01,10.47
		c-7.37,3.13-14.22-3.65-14.22-3.65l3.9-2.72"/>
	<path class="st14" d="M344.86,261.72c0,0-3.43-3.04-9.38-2.56c-5.94,0.48-8.8,1.89-8.8,1.89s4.25-3.72,8.7-4.4
		C339.83,255.97,344.86,261.72,344.86,261.72L344.86,261.72z"/>
	<path class="st14" d="M389.43,243.22c0,0-1.57-2.48-4.78-1.81c-3.21,0.67-6.47,8.29-6.47,8.29s5.14-6.78,7.74-6.9
		C388.52,242.67,389.43,243.22,389.43,243.22L389.43,243.22z"/>
	<path class="st28" d="M377.7,302.79c0,0-0.36,2.26-6.78,3.6c-6.42,1.35-15.79,1.1-24.41-1.88c-8.62-2.98-10.7-4.36-10.7-4.36
		C341.03,304.99,371.87,315.13,377.7,302.79L377.7,302.79z"/>
	<path class="st29" d="M407.92,214.83c0,0-6.84-4.37-15.06-6.16c-8.22-1.78-6.22-0.78-6.22-0.78s4.9,6.28,5.4,11.8
		c0.5,5.52,0.41,12.52,0.41,12.52s-0.66-10.51-5.68-17.04c-5.02-6.53-7.66-7.79-7.66-7.79l6.28,20.84c0,0-6.15-6.15-15.19-9.92
		c-9.04-3.77-19.09-5.02-26.49-6.4c-7.41-1.38-9.17-2.76-9.17-2.76s9.92,6.4,16.83,10.42c6.91,4.02,17.2,6.91,17.2,6.91
		s-13.94,0.88-30.89-2.26c-16.95-3.14-37.17-12.81-37.17-12.81l-4.02-2.13c0,0,3.2,5.02,7.63,11.26c4.43,6.24,5.99,11.36,5.99,11.36
		l-17.48-12.43l10.49,14.11l-11.05-9.05c0,0,6.78,7.49,1.8,20.21c-4.98,12.72-11.06,20.28-11.06,20.28s4.02,1.44,4.36,3.9
		c0.35,2.46-5.68-1.39-8.1-2.77c-2.42-1.38-5.29-1.33-5.33-1.14 M272.15,185.57c-0.15-0.19-6.25,6.5-5.85,10.57
		c0.4,4.07,5.74,7.34,5.74,7.34s-0.75-0.97-9.49,3.23c-8.74,4.2-8.18,5.86-8.18,5.86s5.59-5.42,11.61-3.71
		c6.03,1.71,1.77,3.1,1.77,3.1s-4.56,1.83-5.18,15.57c-0.62,13.74,3.66,34.29,4.02,36.41c0.36,2.11-0.44,2.23-0.44,2.23l-5.23,4.3"
		/>
	<path class="st30" d="M319.09,336.28c0,0,1.77,6.52,7.38,7.41c5.61,0.88,7.48-3.15,8.18-5.69c0.69-2.53,0.41-4.23,0.74-4.37
		c0.33-0.14,1.55,5.08-0.95,10.65c-4.56,10.18-13.15,6.12-15.32-2.69C318.16,337.67,319.09,336.28,319.09,336.28L319.09,336.28z"/>
	<path class="st31" d="M203.59,400.25c0,0,9.14-1.25,9.33-1.25c0.18,0-0.75-2.35-0.03-7.47"/>
</g>
</svg>
